<svg xmlns="http://www.w3.org/2000/svg" xmlns:xlink="http://www.w3.org/1999/xlink" width="730.121" height="569.76" viewBox="0 0 730.121 569.76">
  <defs>
    <linearGradient id="linear-gradient" x1="-0.711" y1="0.5" x2="0.907" y2="0.5" gradientUnits="objectBoundingBox">
      <stop offset="0" stop-color="#525667"/>
      <stop offset="1" stop-color="#3c3841"/>
    </linearGradient>
    <linearGradient id="linear-gradient-2" x1="-0.441" y1="0.5" x2="1.192" y2="0.5" xlink:href="#linear-gradient"/>
    <linearGradient id="linear-gradient-3" x1="-0.544" y1="0.051" x2="1.216" y2="1.015" xlink:href="#linear-gradient"/>
    <linearGradient id="linear-gradient-4" x1="-0.432" y1="0.5" x2="0.513" y2="0.5" xlink:href="#linear-gradient"/>
    <linearGradient id="linear-gradient-5" x1="-0.371" y1="0.5" x2="0.972" y2="0.5" xlink:href="#linear-gradient"/>
    <linearGradient id="linear-gradient-6" x1="0.5" y1="0.024" x2="0.5" y2="0.826" xlink:href="#linear-gradient"/>
    <linearGradient id="linear-gradient-7" x1="0.5" y1="0" x2="0.5" y2="1" xlink:href="#linear-gradient"/>
    <linearGradient id="linear-gradient-8" x1="-0.711" y1="0.5" x2="0.907" y2="0.5" xlink:href="#linear-gradient"/>
    <linearGradient id="linear-gradient-9" x1="-0.711" y1="0.5" x2="0.907" y2="0.5" xlink:href="#linear-gradient"/>
    <linearGradient id="linear-gradient-10" x1="-0.441" y1="0.5" x2="1.192" y2="0.5" xlink:href="#linear-gradient"/>
    <linearGradient id="linear-gradient-11" x1="-6.251" y1="0.5" x2="5.464" y2="0.5" xlink:href="#linear-gradient"/>
    <linearGradient id="linear-gradient-12" x1="-0.441" y1="0.5" x2="1.191" y2="0.5" xlink:href="#linear-gradient"/>
    <linearGradient id="linear-gradient-13" x1="-0.711" y1="0.5" x2="0.907" y2="0.5" xlink:href="#linear-gradient"/>
    <linearGradient id="linear-gradient-14" x1="-0.711" y1="0.5" x2="0.907" y2="0.5" xlink:href="#linear-gradient"/>
    <linearGradient id="linear-gradient-16" x1="-0.441" y1="0.5" x2="1.192" y2="0.5" xlink:href="#linear-gradient"/>
    <linearGradient id="linear-gradient-17" x1="-6.25" y1="0.5" x2="5.464" y2="0.5" xlink:href="#linear-gradient"/>
    <linearGradient id="linear-gradient-18" x1="-0.446" y1="0.5" x2="1.191" y2="0.5" xlink:href="#linear-gradient"/>
    <linearGradient id="linear-gradient-19" x1="-0.711" y1="0.5" x2="0.907" y2="0.5" xlink:href="#linear-gradient"/>
    <linearGradient id="linear-gradient-21" x1="-0.44" y1="0.5" x2="1.192" y2="0.5" xlink:href="#linear-gradient"/>
    <linearGradient id="linear-gradient-22" x1="-6.25" y1="0.5" x2="5.464" y2="0.5" xlink:href="#linear-gradient"/>
    <linearGradient id="linear-gradient-23" x1="-0.443" y1="0.5" x2="1.189" y2="0.5" xlink:href="#linear-gradient"/>
    <linearGradient id="linear-gradient-24" x1="0.001" y1="0.5" x2="1" y2="0.5" xlink:href="#linear-gradient"/>
    <linearGradient id="linear-gradient-25" x1="-0.115" y1="0.502" x2="0.84" y2="0.502" xlink:href="#linear-gradient"/>
    <linearGradient id="linear-gradient-27" x1="-0.441" y1="0.5" x2="1.192" y2="0.5" xlink:href="#linear-gradient"/>
  </defs>
  <g id="Character" transform="translate(-77.57 -136.39)">
    <circle id="Ellipse_4" data-name="Ellipse 4" cx="181.2" cy="181.2" r="181.2" transform="translate(77.57 136.39)" fill="#a9594f"/>
    <circle id="Ellipse_5" data-name="Ellipse 5" cx="151.025" cy="151.025" r="151.025" transform="translate(105.089 169.243) rotate(-1)" fill="#eeebe1"/>
    <circle id="Ellipse_6" data-name="Ellipse 6" cx="120.912" cy="120.912" r="120.912" transform="translate(132.677 202.081) rotate(-2.51)" fill="#a9594f"/>
    <circle id="Ellipse_7" data-name="Ellipse 7" cx="90.947" cy="90.947" r="90.947" transform="translate(160.23 234.934) rotate(-5.01)" fill="#eeebe1"/>
    <circle id="Ellipse_8" data-name="Ellipse 8" cx="61.318" cy="61.318" r="61.318" transform="matrix(0.985, -0.173, 0.173, 0.985, 187.747, 267.808)" fill="#a9594f"/>
    <circle id="Ellipse_9" data-name="Ellipse 9" cx="32.972" cy="32.972" r="32.972" transform="matrix(0.916, -0.401, 0.401, 0.916, 215.347, 300.628)" fill="#eeebe1"/>
    <path id="Path_17" data-name="Path 17" d="M561.59,226.123H184.47v-6.308a5.236,5.236,0,0,0-8.937-3.7l-10.115,10.094h-.147v.147l-1.388,1.388a5.236,5.236,0,0,0,0,7.4l1.388,1.388v.147h.147l10.115,10.094a5.236,5.236,0,0,0,8.937-3.7v-6.308H561.59Z" transform="translate(93.499 86.231)" fill="#3c3841"/>
    <path id="Path_18" data-name="Path 18" d="M249.175,301.023c-3.007-3.638-9.294-8.411-21.785-9.736a1.009,1.009,0,0,1-.5-1.787,9.126,9.126,0,1,0-11.839,0,.988.988,0,0,1-.5,1.766c-12.491,1.262-18.778,6.1-21.806,9.736a11.334,11.334,0,0,0-2.565,7.234v11.376h61.571V308.277a11.334,11.334,0,0,0-2.565-7.255Z" transform="translate(124.178 151.127)" fill="#3c3841"/>
    <path id="Path_19" data-name="Path 19" d="M251.892,453.221H205.63l3.512-70.844h39.323Zm22.416,63.884H183.13v6.981h91.178ZM194,292.25V310.44a3.932,3.932,0,0,0,3.932,3.932h0a3.89,3.89,0,0,1,3.28,1.808l2.334,3.659a51.562,51.562,0,0,1,8.075,27.715h34.171a51.569,51.569,0,0,1,8.081-27.725l2.328-3.649a3.89,3.89,0,0,1,3.28-1.808h0a3.932,3.932,0,0,0,3.932-3.932V292.187a3.617,3.617,0,0,0-5.657-2.734l-11.65,7.612a3.7,3.7,0,0,1-4.037,0l-11.355-7.423a3.7,3.7,0,0,0-4.037,0l-11.355,7.423a3.7,3.7,0,0,1-4.037,0l-11.608-7.612a3.617,3.617,0,0,0-5.657,2.734Zm51.793,55.283H211.623v6.54h34.171Z" transform="translate(116.414 168.101)" fill="url(#linear-gradient)"/>
    <path id="Path_20" data-name="Path 20" d="M278.193,469.563a18.778,18.778,0,0,1,2.944,10.094v4.563a3.932,3.932,0,0,1-3.932,3.932H184.932A3.932,3.932,0,0,1,181,484.22v-4.563a18.778,18.778,0,0,1,2.943-10.093l3.828-6.015a81.842,81.842,0,0,0,12.3-34.76,10.514,10.514,0,0,1,10.367-9.231h41.215a10.514,10.514,0,0,1,10.367,9.231,81.842,81.842,0,0,0,12.3,34.76Zm2.944,36.337v-7.633a3.154,3.154,0,0,0-3.154-3.154H184.154A3.154,3.154,0,0,0,181,498.267v7.654a3.154,3.154,0,0,0,3.154,3.154h93.828a3.154,3.154,0,0,0,3.154-3.175ZM250.73,318.56h0a3.47,3.47,0,0,0-3.47-3.47H214.876a3.47,3.47,0,0,0-3.47,3.47h0a3.47,3.47,0,0,0,3.47,3.47H247.26a3.47,3.47,0,0,0,3.47-3.47Zm1.346,10.514h0a3.932,3.932,0,0,0-3.932-3.932H213.972a3.932,3.932,0,0,0-3.932,3.932h0a13.164,13.164,0,0,1-7.423,11.839l-1.157.568a3.932,3.932,0,0,0-2.208,3.533v2.65a10.514,10.514,0,0,0,10.514,10.514H252.5a10.514,10.514,0,0,0,10.514-10.514v-2.692a3.932,3.932,0,0,0-2.208-3.533l-1.157-.568a13.164,13.164,0,0,1-7.57-11.839Z" transform="translate(114.065 197.075)" fill="url(#linear-gradient-2)"/>
    <ellipse id="Ellipse_10" data-name="Ellipse 10" cx="32.846" cy="111.954" rx="32.846" ry="111.954" transform="translate(706.062 176.848)" fill="#3c3841"/>
    <path id="Path_21" data-name="Path 21" d="M496.093,193.44H266.612l-78.9,142.487a34.024,34.024,0,0,0,8.558,43.087l33.183,26.453a42.056,42.056,0,0,0,26.285,9.189h4.206l11.04,8.79a32.909,32.909,0,0,0,20.524,7.171h69.582a6.855,6.855,0,0,0,6.792-8.033,45.884,45.884,0,0,0-39.113-36.821l-11-1.43a45.97,45.97,0,0,0-10.388-8.411l33.141-57.7s25.886-12.932,42.771-20.881l5.131,5a27.568,27.568,0,0,0,19.3,7.907h.126a27.547,27.547,0,0,1,19.3,7.886l.21.189a27.547,27.547,0,0,0,19.3,7.886h49.543Z" transform="translate(116.771 62.916)" fill="#91673e"/>
    <path id="Path_22" data-name="Path 22" d="M278.943,173.21,178.975,313.658a34.024,34.024,0,0,0,6.54,46.262l97.718,77.8a11.481,11.481,0,0,0,18.274-6.161h0A75.7,75.7,0,0,0,290.572,370.1l-29.44-42.961,66.849-58.879Z" transform="translate(104.924 40.606)" fill="#91673e"/>
    <path id="Path_23" data-name="Path 23" d="M264.047,297.258a2.734,2.734,0,0,0,1.157-2.523l-.652-5.783a1.115,1.115,0,0,1,1.241-1.241l5.762.694a2.8,2.8,0,0,0,3.133-2.776v-5.552a2.8,2.8,0,0,0-3.133-2.776l-5.762.694a1.115,1.115,0,0,1-1.241-1.241l.652-5.783a2.8,2.8,0,0,0-2.776-3.112h-5.446a2.8,2.8,0,0,0-2.776,3.112l.652,5.783A1.115,1.115,0,0,1,253.617,278l-5.762-.694a2.8,2.8,0,0,0-3.133,2.776v5.552a2.8,2.8,0,0,0,3.133,2.776l5.762-.694a1.114,1.114,0,0,1,1.241,1.241l-.652,5.783a2.734,2.734,0,0,0,1.157,2.523c-22.542,1.472-26.433,14.173-26.433,14.173h61.55S286.589,298.73,264.047,297.258Z" transform="translate(166.923 144.988)" fill="url(#linear-gradient-3)"/>
    <path id="Path_24" data-name="Path 24" d="M290.642,455.733H244.38l3.512-70.844h39.323Zm22.416,61.634H221.88v6.981h91.178ZM232.752,292.512V310.7a3.932,3.932,0,0,0,3.932,3.932h0a3.89,3.89,0,0,1,3.28,1.808L242.3,320.1a51.561,51.561,0,0,1,8.075,27.715h34.171a51.571,51.571,0,0,1,8.081-27.725l2.328-3.649a3.89,3.89,0,0,1,3.28-1.808h0a3.932,3.932,0,0,0,3.932-3.932V292.512a3.932,3.932,0,0,0-3.932-3.932h-61.55a3.932,3.932,0,0,0-3.932,3.932ZM284.544,347.8h-34.15v6.54h34.171Z" transform="translate(159.148 167.839)" fill="url(#linear-gradient-4)"/>
    <path id="Path_25" data-name="Path 25" d="M317.006,469.563a18.777,18.777,0,0,1,2.944,10.094v4.563a3.932,3.932,0,0,1-3.932,3.932H223.682a3.932,3.932,0,0,1-3.932-3.932v-4.563a18.777,18.777,0,0,1,2.943-10.093l3.828-6.015a81.842,81.842,0,0,0,12.3-34.76,10.514,10.514,0,0,1,10.367-9.231H290.4a10.514,10.514,0,0,1,10.367,9.231,81.842,81.842,0,0,0,12.3,34.76ZM319.95,505.9v-7.633a3.154,3.154,0,0,0-3.154-3.154H222.9a3.154,3.154,0,0,0-3.154,3.154v7.654a3.154,3.154,0,0,0,3.154,3.154h93.828a3.154,3.154,0,0,0,3.154-3.175ZM289.543,318.56h0a3.47,3.47,0,0,0-3.47-3.47H253.69a3.47,3.47,0,0,0-3.47,3.47h0a3.47,3.47,0,0,0,3.47,3.47h32.383a3.47,3.47,0,0,0,3.407-3.47Zm1.346,10.514h0a3.932,3.932,0,0,0-3.932-3.932H252.743a3.932,3.932,0,0,0-3.932,3.932h0a13.164,13.164,0,0,1-7.423,11.839l-1.157.568a3.932,3.932,0,0,0-2.208,3.533v2.65a10.514,10.514,0,0,0,10.514,10.514H291.2a10.514,10.514,0,0,0,10.514-10.514v-2.692a3.932,3.932,0,0,0-2.208-3.533l-1.157-.568a13.164,13.164,0,0,1-7.528-11.839Z" transform="translate(156.799 197.075)" fill="url(#linear-gradient-5)"/>
    <path id="Path_26" data-name="Path 26" d="M622.164,261.5c0-39.617-7.97-79.213-16.823-100.347H302.493A54.022,54.022,0,0,0,256.231,187.2l-56.1,92.734a47.482,47.482,0,0,0-5.089,37.43c10.514,37.451,32.846,123.877,39.512,151.4a12.091,12.091,0,0,0,11.755,9.252h0a25.634,25.634,0,0,0,25.654-25.634c0-37.409,0-111.323,0-132.31a15.981,15.981,0,0,1,4.605-11.25C292.21,292.955,339,244.359,373.3,263.2c43.465,23.846,11.46,67.648,11.46,67.648L339.04,384.386a74.419,74.419,0,0,0-6.308,84.491,20.292,20.292,0,0,0,31.542,4.479l81.547-77.005a54.989,54.989,0,0,1,37.851-15.014H506.8A65.451,65.451,0,0,0,548.6,366.247l15.235-12.626h44.832C615.982,331.289,622.164,296.4,622.164,261.5Z" transform="translate(127.594 27.306)" fill="#cb9545"/>
    <path id="Path_27" data-name="Path 27" d="M390.6,153.71c11.692,0,28.788,58,28.788,115.992S402.292,385.63,390.6,385.63h71.875V153.71Z" transform="translate(345.217 19.101)" fill="url(#linear-gradient-6)"/>
    <path id="Path_28" data-name="Path 28" d="M399.775,153.71c-5.257,0-10.178,5.72-14.425,15.645h5.72c3.7-7.886,7-10.514,8.727-10.514,2.713,0,9.379,6.308,15.266,30.007,5.341,21.512,8.285,50.194,8.285,80.769s-2.944,59.258-8.285,80.77c-5.888,23.741-12.617,30.007-15.266,30.007-2.208,0-7.087-4.206-12.007-18.715H382.28c4.858,14.993,10.914,23.951,17.5,23.951,15.9,0,28.788-51.94,28.788-115.992S415.673,153.71,399.775,153.71Z" transform="translate(336.041 19.101)" fill="url(#linear-gradient-7)"/>
    <path id="Path_29" data-name="Path 29" d="M337.6,404.154H291.23l3.512-70.844h39.323Z" transform="translate(235.629 217.168)" fill="url(#linear-gradient-8)"/>
    <rect id="Rectangle_18" data-name="Rectangle 18" width="91.178" height="6.981" transform="translate(504.443 685.206)" fill="url(#linear-gradient-9)"/>
    <path id="Path_30" data-name="Path 30" d="M375.633,414.775a18.779,18.779,0,0,1,2.944,10.094v4.563a3.932,3.932,0,0,1-3.932,3.932H282.372a3.932,3.932,0,0,1-3.932-3.932v-4.563a18.777,18.777,0,0,1,2.943-10.093l3.828-6.015a81.842,81.842,0,0,0,12.3-34.76,10.514,10.514,0,0,1,10.367-9.231h41.215A10.514,10.514,0,0,1,359.462,374a81.841,81.841,0,0,0,12.3,34.76Z" transform="translate(221.524 251.863)" fill="url(#linear-gradient-10)"/>
    <rect id="Rectangle_19" data-name="Rectangle 19" width="13.963" height="100.136" rx="1.5" transform="translate(600.101 692.187) rotate(90)" fill="url(#linear-gradient-11)"/>
    <path id="Path_31" data-name="Path 31" d="M339.932,323.782h0A3.932,3.932,0,0,0,336,319.85H301.85a3.932,3.932,0,0,0-3.932,3.932h0a13.164,13.164,0,0,1-7.423,11.839l-1.157.568a3.932,3.932,0,0,0-2.208,3.533v2.65a10.514,10.514,0,0,0,10.514,10.514h42.624a10.514,10.514,0,0,0,10.514-10.514v-2.65a3.932,3.932,0,0,0-2.208-3.533l-1.157-.568A13.164,13.164,0,0,1,339.932,323.782Z" transform="translate(231.108 202.324)" fill="url(#linear-gradient-12)"/>
    <path id="Path_32" data-name="Path 32" d="M322.8,331.844l9.988-19.115a1.262,1.262,0,0,0-.126-1.367A34.192,34.192,0,0,0,319,301.543a.925.925,0,0,1-.336-1.472,5.276,5.276,0,1,0-7.991-.021.946.946,0,0,1-.337,1.493c-34.087,14.552-12.743,49.774-12.743,49.774h34.171s11.229-18.568,4.374-34.3a1.262,1.262,0,0,0-2.1-.273Z" transform="translate(235.367 170.879)" fill="url(#linear-gradient-13)"/>
    <path id="Path_33" data-name="Path 33" d="M374.357,393.042H327.99L331.5,345.75h39.344Z" transform="translate(276.169 230.887)" fill="url(#linear-gradient-14)"/>
    <rect id="Rectangle_20" data-name="Rectangle 20" width="91.178" height="6.981" transform="translate(581.743 685.206)" fill="url(#linear-gradient-9)"/>
    <path id="Path_34" data-name="Path 34" d="M412.393,413.408a18.779,18.779,0,0,1,2.944,10.094v4.563A3.932,3.932,0,0,1,411.4,432H319.132a3.932,3.932,0,0,1-3.932-3.932V423.5a18.777,18.777,0,0,1,2.943-10.093l3.828-6.015c6.708-10.514,10.914-19.809,12.3-32.152a10.514,10.514,0,0,1,10.367-9.231h41.215a10.514,10.514,0,0,1,10.367,9.231c1.409,12.323,5.593,21.617,12.3,32.152Z" transform="translate(262.064 253.23)" fill="url(#linear-gradient-16)"/>
    <rect id="Rectangle_21" data-name="Rectangle 21" width="13.963" height="100.136" rx="1.5" transform="translate(677.401 692.187) rotate(90)" fill="url(#linear-gradient-17)"/>
    <path id="Path_35" data-name="Path 35" d="M378.9,331.745v2.1a3.932,3.932,0,0,1-3.932,3.932h-6.308a3.932,3.932,0,0,1-3.932-3.932v-2.1a3.932,3.932,0,0,0-3.932-3.932h-6.308a3.932,3.932,0,0,0-3.932,3.932v2.1a3.932,3.932,0,0,1-3.932,3.932h-6.308a3.932,3.932,0,0,1-3.932-3.932v-2.1a3.932,3.932,0,0,0-3.932-3.932h-6.308a3.932,3.932,0,0,0-3.932,3.932v23.32a10.514,10.514,0,0,0,10.514,10.514H382.75a10.514,10.514,0,0,0,10.514-10.514v-23.32a3.932,3.932,0,0,0-3.932-3.932h-6.309a3.932,3.932,0,0,0-4.121,3.932Z" transform="translate(269.795 211.1)" fill="url(#linear-gradient-18)"/>
    <path id="Path_36" data-name="Path 36" d="M146.327,393.042H99.96l3.533-47.292h39.323Z" transform="translate(24.692 230.887)" fill="url(#linear-gradient-19)"/>
    <rect id="Rectangle_22" data-name="Rectangle 22" width="91.178" height="6.981" transform="translate(102.236 685.206)" fill="url(#linear-gradient-9)"/>
    <path id="Path_37" data-name="Path 37" d="M184.428,413.408a18.779,18.779,0,0,1,2.944,10.094v4.563A3.932,3.932,0,0,1,183.439,432H91.062a3.932,3.932,0,0,1-3.932-3.932V423.5a18.777,18.777,0,0,1,2.944-10.093l3.828-6.015c6.708-10.514,10.914-19.809,12.3-32.152a10.514,10.514,0,0,1,10.367-9.231h41.215a10.514,10.514,0,0,1,10.367,9.231c1.409,12.323,5.593,21.617,12.3,32.152Z" transform="translate(10.543 253.23)" fill="url(#linear-gradient-21)"/>
    <rect id="Rectangle_23" data-name="Rectangle 23" width="13.963" height="100.136" rx="1.5" transform="translate(197.894 692.187) rotate(90)" fill="url(#linear-gradient-22)"/>
    <path id="Path_38" data-name="Path 38" d="M150.927,331.749v2.1a3.932,3.932,0,0,1-3.932,3.932h-6.308a3.932,3.932,0,0,1-3.932-3.932v-2.1a3.932,3.932,0,0,0-3.932-3.932h-6.308a3.932,3.932,0,0,0-3.932,3.932v2.1a3.932,3.932,0,0,1-3.932,3.932H112.34a3.932,3.932,0,0,1-3.932-3.932v-2.1a3.932,3.932,0,0,0-4.037-3.932H98.062a3.932,3.932,0,0,0-3.932,3.932v23.32a10.514,10.514,0,0,0,10.514,10.514H154.9a10.514,10.514,0,0,0,10.514-10.514v-23.32a3.932,3.932,0,0,0-3.932-3.932h-6.308a3.932,3.932,0,0,0-4.248,3.932Z" transform="translate(18.263 211.096)" fill="url(#linear-gradient-23)"/>
    <path id="Path_39" data-name="Path 39" d="M130.634,424.972h89.685c2.1-6.561-5.951-11.713-4.206-30.554s22.542-34.634,12.028-61c0,0,9.21-6.308,7.108-12.154s-13.816-2.1-13.816-2.1-51.877-31.269-50.215-1.2c0,0-19.661,11.65-34.739,17.1s-12.133,23.425-9.21,27.61,23.068-3.322,28.094-4.984,5.867,10.514,19.241,9.631C174.625,367.292,130.634,396.605,130.634,424.972Z" transform="translate(52.203 185.836)" fill="url(#linear-gradient-24)"/>
    <path id="Path_40" data-name="Path 40" d="M217.316,362s1.009,12.617-44.748,12.617S127.63,362,127.63,362Z" transform="translate(55.207 248.808)" fill="url(#linear-gradient-25)"/>
    <rect id="Rectangle_24" data-name="Rectangle 24" width="91.178" height="6.981" transform="translate(182.08 685.206)" fill="url(#linear-gradient-9)"/>
    <path id="Path_41" data-name="Path 41" d="M222.365,413.408a18.778,18.778,0,0,1,2.944,10.094v4.563A3.932,3.932,0,0,1,221.376,432H129.062a3.932,3.932,0,0,1-3.932-3.932V423.5a18.777,18.777,0,0,1,2.943-10.093l3.828-6.015c6.708-10.514,10.914-19.809,12.3-32.152a10.514,10.514,0,0,1,10.367-9.231h41.215a10.514,10.514,0,0,1,10.367,9.231c1.409,12.323,5.594,21.617,12.3,32.152Z" transform="translate(52.45 253.23)" fill="url(#linear-gradient-27)"/>
    <rect id="Rectangle_25" data-name="Rectangle 25" width="13.963" height="100.136" rx="1.5" transform="translate(277.738 692.187) rotate(90)" fill="url(#linear-gradient-22)"/>
  </g>
</svg>
