<svg xmlns="http://www.w3.org/2000/svg" width="141.632" height="111.555" viewBox="0 0 141.632 111.555">
  <path id="Path_5" data-name="Path 5" d="M144.835,61.233l7.488-3.01-7.665-5.464,6.945-2.812-43.95-31.254L80.388,27.08l3.7,3.143,22.684-7.009L142.87,48.935,118.455,58.87l-.147.054-2.1-1.694,22.766-8.917L106.453,24.941l-20.832,6.6-1.57-1.316-3.74-3.143L77.72,24.9,45.012,35.6,47.1,37.283,10.691,48.55l6.817,6.177-6.8,2.1,6.915,6.216L10.71,65.172l6.915,6.214L10.71,73.52l6.915,6.216L10.71,81.869l6.915,6.216L10.71,90.219l44.06,40.031,30.917-12.622v3.062l33.286-11.7v-4.11l33.177-13.265-7.4-5.338,7.531-3.011-7.467-5.338,7.5-3.01L144.83,69.58l7.491-3.012ZM105.728,29.479l24.719,17.768-17.822,6.98-3.772-3.171c-1.223-9.979-11.095-13.418-17.377-14.6l-2.134-1.79ZM51.006,40.435l1.847,1.48L23.671,51.158l32.9,29.43L85.709,68.965l-.021.757v1.515L55.242,83.821,18.42,50.335ZM78.123,62.257,82.7,65.946l-25.278,9.9L31.777,52.9,56.7,45.006l1.785,1.437C58.1,51.165,59.432,61.5,78.123,62.257ZM54.39,88.586l31.3-12.922v4.145L55.615,92.09,18.606,58.611l2.081-.68Zm.384,8.267L85.688,84.234v3.922L55.615,100.436,18.606,66.959l2.221-.724Zm0,8.348L85.688,92.582V96.5L55.615,108.785,18.606,75.306l2.221-.722Zm0,8.35,30.914-12.619v3.922L55.615,117.135,18.606,83.656l2.221-.724Zm.841,11.93L18.606,92l2.46-.724L54.714,121.9l30.973-12.617V113.2Zm58.1-60.81v41.466l-22.775,8.646V67.756l-4.39-3.537-25.437-20.7-3.7-3.092-1.754-1.468-2.213-1.808,23.361-7.633,2.567,2.148,1.6,1.344,3.726,3.129,23.563,19.8,3.362,3.006,2.085,2.425v3.308Zm29.94.886L118.974,75.41V71.489l21.081-8.439Zm-3.682-10.972,3.6,2.624-24.6,9.853v-4.04ZM143.658,90.6l-24.684,9.853V96.534L140.054,88.1Zm0-8.348-24.684,9.853V88.185l21.081-8.437Zm0-8.348-24.684,9.851V79.837L140.054,71.4Z" transform="translate(-10.691 -18.694)" fill="#15af4b"/>
</svg>
