<svg id="Layer_1" data-name="Layer 1" xmlns="http://www.w3.org/2000/svg" xmlns:xlink="http://www.w3.org/1999/xlink" viewBox="0 0 447.43 389.57"><defs><style>.cls-1{fill:none;}.cls-2{clip-path:url(#clip-path);}.cls-3{fill:#fed402;}.cls-4{fill:#15af4b;}</style><clipPath id="clip-path"><path class="cls-1" d="M299.4,160.05H148c-6.7,0-12.14,3.78-12.14,8.44,0,33.72,39.36,61,87.87,61s87.78-27.33,87.8-61C311.55,163.83,306.11,160.05,299.4,160.05Z"/></clipPath></defs><title>Simi Celebration Logo-02</title><g class="cls-2"><path d="M161.51,230.86q-9.16,0-15.53-3.14a35.39,35.39,0,0,1-10.85-8.12l10-10.07a22.48,22.48,0,0,0,17.43,7.89c3.71,0,6.47-.75,8.26-2.26a7.5,7.5,0,0,0,2.69-6,7.27,7.27,0,0,0-1.6-4.79q-1.59-1.92-6.47-2.61l-6.87-.89q-11-1.4-16.18-6.68t-5.12-14a20.16,20.16,0,0,1,1.79-8.58,19,19,0,0,1,5.13-6.68,23.85,23.85,0,0,1,8.16-4.33,39.67,39.67,0,0,1,24.84.95,27.94,27.94,0,0,1,10.25,7.28l-10,10.17a20,20,0,0,0-6-4.68,19.3,19.3,0,0,0-8.91-1.83q-5.08,0-7.57,1.78a5.7,5.7,0,0,0-2.49,4.92q0,3.56,1.94,5.13c1.3,1.05,3.4,1.81,6.32,2.26l6.87,1.1q10.76,1.69,15.93,6.63t5.18,14a23.15,23.15,0,0,1-1.79,9.17,19.79,19.79,0,0,1-5.23,7.18,24.22,24.22,0,0,1-8.51,4.63A37.68,37.68,0,0,1,161.51,230.86Z"/><path class="cls-3" d="M201.73,176.17q-4.48,0-6.52-2a7.05,7.05,0,0,1-2-5.22v-2.19a7.08,7.08,0,0,1,2-5.23q2-2,6.52-2t6.52,2a7.08,7.08,0,0,1,2,5.23v2.19a7.05,7.05,0,0,1-2,5.22Q206.21,176.18,201.73,176.17Z"/><rect x="194.36" y="184.25" width="14.73" height="45.42"/><path d="M269.63,184.07h-.3l-5.08,10.16-13.54,24.59-13.24-24.49-5.28-11h-.29v46.3H217.66V160.18h16l17,32.55h.2l16.83-32.55h16.12v69.49H269.63Z"/><path class="cls-4" d="M299.79,176.17q-4.49,0-6.52-2a7.05,7.05,0,0,1-2-5.22v-2.19a7.08,7.08,0,0,1,2-5.23q2-2,6.52-2t6.52,2a7.08,7.08,0,0,1,2,5.23v2.19a7.05,7.05,0,0,1-2,5.22Q304.27,176.18,299.79,176.17Z"/><rect x="292.42" y="184.25" width="14.73" height="45.42"/></g></svg>