<svg xmlns="http://www.w3.org/2000/svg" xmlns:xlink="http://www.w3.org/1999/xlink" width="683.484" height="605.354" viewBox="0 0 683.484 605.354">
  <defs>
    <filter id="Path_16" x="0" y="207.727" width="683.484" height="397.627" filterUnits="userSpaceOnUse">
      <feOffset dy="7" input="SourceAlpha"/>
      <feGaussianBlur stdDeviation="3" result="blur"/>
      <feFlood flood-opacity="0.161"/>
      <feComposite operator="in" in2="blur"/>
      <feComposite in="SourceGraphic"/>
    </filter>
  </defs>
  <g id="Character" transform="translate(-130.066 -124.479)">
    <g id="Plants" transform="translate(764.032 550.409)">
      <g id="_Group_" data-name="&lt;Group&gt;">
        <g id="_Group_2" data-name="&lt;Group&gt;">
          <path id="_Path_" data-name="&lt;Path&gt;" d="M383.82,375.442l-7.38-4.22s-3.537-19.522-.9-36.31c3.725-23.578,19.782-31.736,25.629-29.4s7.215,9.431-3.324,22.965C391.624,336.539,383.631,353.539,383.82,375.442Z" transform="translate(-374.565 -305.128)" fill="#37474f"/>
        </g>
        <g id="_Group_3" data-name="&lt;Group&gt;" transform="translate(5.387 3.465)">
          <path id="_Path_2" data-name="&lt;Path&gt;" d="M378.053,364.134h0a.519.519,0,0,0,.448-.589c-3.042-22.092,5.824-46.283,15.821-56.044a.525.525,0,0,0-.731-.755c-10.162,9.926-19.216,34.518-16.127,56.941a.519.519,0,0,0,.589.448Z" transform="translate(-376.849 -306.597)" fill="#fff"/>
        </g>
      </g>
      <g id="_Group_4" data-name="&lt;Group&gt;" transform="translate(3.801 20.329)">
        <g id="_Group_5" data-name="&lt;Group&gt;">
          <path id="_Path_3" data-name="&lt;Path&gt;" d="M402.143,375.642c1.155.66,3.584-.8,4.5-1.415a11.131,11.131,0,0,0,3.7-4.244,10.445,10.445,0,0,0,.92-6.272,24.706,24.706,0,0,0-.8-3.324l-.92-3.23a8.2,8.2,0,0,1-.472-3.254,8.511,8.511,0,0,1,4.032-5.093,8.135,8.135,0,0,0,4.032-6.107,9.431,9.431,0,0,0-2.358-5.588c-1.273-1.6-2.782-3.042-3.938-4.716a6.555,6.555,0,0,1-1.344-4.15,6.814,6.814,0,0,1,.9-2.593,36.638,36.638,0,0,0,2.829-5.187,5.211,5.211,0,0,0-.9-5.517,6.106,6.106,0,0,0-4.574-1.132,10.514,10.514,0,0,0-4.268,1.509c-4.22,2.358-6.649,7.356-11.129,9.172a44.941,44.941,0,0,1-5.423,1.32,6.7,6.7,0,0,0-4.48,3.065c-1.651,3.3,1.415,7.356.259,10.846-1.014,3.089-4.032,4.268-5.706,7.073a6.6,6.6,0,0,0-.778,4.055,19.407,19.407,0,0,0,1.7,6.838,48.637,48.637,0,0,0,3.749,6.154S401.955,375.454,402.143,375.642Z" transform="translate(-376.177 -313.749)" fill="#455a64"/>
        </g>
        <g id="_Group_6" data-name="&lt;Group&gt;" transform="translate(13.349 3.275)">
          <path id="_Path_4" data-name="&lt;Path&gt;" d="M382.455,367.3h0a.519.519,0,0,0,.519-.542c-.872-20.914,8.983-44,16.151-50.692a.534.534,0,0,0-.731-.778c-7.309,6.838-17.353,30.3-16.5,51.518a.519.519,0,0,0,.566.5Z" transform="translate(-381.839 -315.139)" fill="#fff"/>
        </g>
        <g id="_Group_7" data-name="&lt;Group&gt;" transform="translate(16.517 27.327)">
          <path id="_Path_5" data-name="&lt;Path&gt;" d="M383.766,328.735h.165a70.731,70.731,0,0,1,15.184-2.358.519.519,0,1,0-.047-1.038,71.961,71.961,0,0,0-15.443,2.5.525.525,0,0,0,.165,1.038Z" transform="translate(-383.182 -325.34)" fill="#fff"/>
        </g>
      </g>
    </g>
    <g transform="matrix(1, 0, 0, 1, 130.07, 124.48)" filter="url(#Path_16)">
      <path id="Path_16-2" data-name="Path 16" d="M733.747,494.336h0l-14.383-8.3-3.3-1.91L677.75,462.011C620.432,429,581.293,387.222,564.576,341.434a142.551,142.551,0,0,1-1.014-96.339l39.139,6.06L555.546,213.43,481.7,232.481l39.917,6.177-7.427,15.986a147.126,147.126,0,0,0-5.376,114.635,189.068,189.068,0,0,0,32.49,55.337L253.655,271.361l22.611-13.039-76.675,3.607L193.7,306.185l24.309-14.147L483.35,458.168a663.1,663.1,0,0,0-96.032-18.862,735.635,735.635,0,0,0-198.549,3.089l-36.145,5.588L142.509,426.2,109.5,468.825l65.4,27.232-11.2-24.144a720.806,720.806,0,0,1,175.466-.424c79.316,9.667,151.535,32.254,208.852,65.334l38.338,22.187,58.945,34.046,129.678-74.883Z" transform="translate(-100.5 -3.7)" fill="#27debf"/>
    </g>
    <path id="Shadow" d="M422.163,339.859c24.262,14.005,24.262,36.734,0,50.74s-63.66,14.005-87.875,0-24.262-36.734,0-50.74S397.878,325.854,422.163,339.859Z" transform="translate(310.098 278.177)" opacity="0.1"/>
    <path id="Shadow-2" data-name="Shadow" d="M242.119,274.98c6.531,3.772,6.531,9.879,0,13.628a26.1,26.1,0,0,1-23.578,0c-6.531-3.772-6.531-9.879,0-13.628a26.1,26.1,0,0,1,23.578,0Z" transform="translate(170.969 200.527)" opacity="0.1"/>
    <g id="Question_Mark" data-name="Question Mark" transform="translate(328.844 124.479)">
      <path id="_Path_6" data-name="&lt;Path&gt;" d="M259.391,219.742h0l-14.854-8.559h0c-3.537-2.051-8.582-1.58-15.09,2.169a44.4,44.4,0,0,0-21.527,38.455c0,7.781,2.051,13.51,6.107,15.986l14.854,8.606h0c3.584,2.146,8.7,1.721,15.373-2.122,14.147-8.229,21.22-23.955,21.22-38.644C265.5,227.806,263.447,222.1,259.391,219.742Z" transform="translate(-165.646 -8.389)" fill="#37474f"/>
      <path id="_Path_7" data-name="&lt;Path&gt;" d="M318.536,136.789l-15.113-8.724c-10.681-6.13-26.242-4.716-45.882,6.7-35.532,20.513-60.053,59.7-67.551,101.055l14.783,8.535,39.469-8.771c4.5-17.283,11.27-29.519,26.784-38.479a36.356,36.356,0,0,1,6.225-3.018,30.654,30.654,0,0,1,.424,5.329c0,13.345-9.007,28.553-45.034,64.367v56.728l14.783,8.535,42.275-24.4V273.281c21.008-22.47,45.034-56.021,45.034-97.07C334.876,156.948,329.123,143.06,318.536,136.789Z" transform="translate(-189.99 -124.479)" fill="#37474f"/>
      <path id="_Path_8" data-name="&lt;Path&gt;" d="M239.057,267.448c36.027-35.815,45.034-51.022,45.034-64.368,0-11.789-5.258-20.324-21.527-10.94-15.514,8.96-22.281,21.22-26.784,38.479l-39.54,8.818c7.5-41.356,32.019-80.542,67.551-101.055,39.54-22.823,62.552-5.753,62.552,33.009,0,41.025-24.026,74.6-45.034,97.07V299.82l-42.251,24.356Z" transform="translate(-181.504 -119.542)" fill="#455a64"/>
      <path id="_Path_9" data-name="&lt;Path&gt;" d="M214.191,255.45a44.4,44.4,0,0,1,21.527-38.5c14.005-8.087,21.22-.943,21.22,13.746s-7.073,30.392-21.22,38.644S214.191,270.139,214.191,255.45Z" transform="translate(-157.133 -3.519)" fill="#455a64"/>
      <path id="_Path_10" data-name="&lt;Path&gt;" d="M267.947,168.511c0,13.345-9.007,28.553-45.034,64.368l-14.783-8.535c36.027-35.838,45.01-51.022,45.01-64.368a31.054,31.054,0,0,0-.519-5.4C264.1,150.733,267.947,158.514,267.947,168.511Z" transform="translate(-165.36 -84.973)" fill="#263238"/>
    </g>
    <g id="Character-2" data-name="Character" transform="translate(593.79 337.875)">
      <g id="_Group_8" data-name="&lt;Group&gt;">
        <g id="_Group_9" data-name="&lt;Group&gt;" transform="translate(118.831 56.529)">
          <path id="_Path_11" data-name="&lt;Path&gt;" d="M352.76,239.241c6.272-1.485,13.156,2.971,17.188,12.8s12.1,34.919,13.77,41.473c.754,2.947-21.574,29-20.8,28.6.236-.118-7.286-12.708-7.286-12.708l10.846-16.67-6.79-18.108Z" transform="translate(-352.76 -238.961)" fill="#cc9546"/>
        </g>
        <g id="_Group_10" data-name="&lt;Group&gt;" transform="translate(63.657 123.738)">
          <g id="_Group_11" data-name="&lt;Group&gt;" transform="translate(45.149 151.042)">
            <path id="_Path_12" data-name="&lt;Path&gt;" d="M372.962,346.6c.849.33,1.061,1.933,1.2,5.164,0,2.358.613,6.672-2.24,7.521s-7.073.424-8.842-1.886c-2.358-2.853-3.82-5.376-7.073-8.865-2.829-3.018-5.871-5.847-7.073-10.091-1.037-3.843-.165-5.494,2.358-6.625,3.607-1.533,9.266,3.49,12.072,4.268C365.96,336.768,372.113,346.293,372.962,346.6Z" transform="translate(-348.508 -331.527)" fill="#263238"/>
          </g>
          <g id="_Group_12" data-name="&lt;Group&gt;" transform="translate(58.592 159.347)">
            <path id="_Path_13" data-name="&lt;Path&gt;" d="M365.221,338.846v3.938a9.667,9.667,0,0,1-9.973.259c-.165-.377-1.037-7.993-1.037-7.993Z" transform="translate(-354.21 -335.05)" fill="#ffa8a7"/>
          </g>
          <g id="_Group_13" data-name="&lt;Group&gt;" transform="translate(0 187.098)">
            <path id="_Path_14" data-name="&lt;Path&gt;" d="M369.608,346.82s1.132,3.442,1.745,6.437c.5,2.358,1.179,6.366.354,8.158s-4.1,2.947-9.148,2.924a29.661,29.661,0,0,0-11.789,4.15,18.156,18.156,0,0,1-11.341,1.58c-4.5-.519-9.148-3.136-9.879-5s.212-2.759,10.8-7.262c0,0,11.176-5.046,16.292-10.7Z" transform="translate(-329.359 -346.82)" fill="#263238"/>
          </g>
          <g id="_Group_14" data-name="&lt;Group&gt;" transform="translate(27.204 182.807)">
            <path id="_Path_15" data-name="&lt;Path&gt;" d="M353.942,345v4.716c0,1.792-1.957,4.173-7.073,3.985-3.584-.118-6.107-1.085-5.965-4.055v-4.268Z" transform="translate(-340.898 -345)" fill="#ffa8a7"/>
          </g>
          <g id="_Group_15" data-name="&lt;Group&gt;" transform="translate(14.276)">
            <path id="_Path_16" data-name="&lt;Path&gt;" d="M394.632,375.909a93.456,93.456,0,0,0-4.716-20.3s2.216-17.448,3.513-34.235c2.358-30.062.448-39.894-5.446-53.357,0,0-50.433-5.116-51.871,15.844-1.91,26.1.637,76.557,1.32,85.776s1.556,13.369,4.716,32.655c2.476,14.665,6.319,48.264,6.319,48.264A13.841,13.841,0,0,0,361.5,450.3s4.126-41.968,3.7-52.6a90.915,90.915,0,0,0-4.032-23.224s3.136-42.44,4.032-49.325c0,0,1.58,13.487,2.358,22.729s3.442,18.037,6.107,35.155c2.358,14.854,6.6,48.075,6.6,48.075a9.431,9.431,0,0,0,10.964-.4S396.447,388.806,394.632,375.909Z" transform="translate(-335.414 -267.466)" fill="#37474f"/>
          </g>
        </g>
        <g id="_Group_16" data-name="&lt;Group&gt;" transform="translate(92.989 46.316)">
          <g id="_Group_17" data-name="&lt;Group&gt;">
            <path id="_Path_17" data-name="&lt;Path&gt;" d="M341.8,238.332l2.381,19.475,17.141-1.533-1.957-21.644Z" transform="translate(-341.8 -234.63)" fill="#cc9546"/>
          </g>
        </g>
        <g id="_Group_18" data-name="&lt;Group&gt;" transform="translate(76.98 56.782)">
          <g id="_Group_19" data-name="&lt;Group&gt;">
            <path id="_Path_18" data-name="&lt;Path&gt;" d="M389.333,248.856c-1.886-5.116-8.3-10.846-14.878-9.62-1.721.33-3.23.566-4.833.9-.141,4.48-8.606,6.814-17.047,4.079q-3.8,1.085-7.073,2.216c-6.036,2.146-8.464,12.166-8.582,28.93s-1.91,58.567-1.91,58.567l7.073,2.216,3.3-12.237,1.32,14.642a52.412,52.412,0,0,0,24.356-.118c18.131-3.961,23.766-13.746,23.766-13.746a88.32,88.32,0,0,0-12.85-31.547C391.054,268.874,392.139,256.448,389.333,248.856Z" transform="translate(-335.01 -239.069)" fill="#27debf"/>
          </g>
        </g>
        <path id="_Path_19" data-name="&lt;Path&gt;" d="M335.949,264.989l10.657-12.119L335.69,274.679Z" transform="translate(-257.107 -163.548)" opacity="0.2"/>
        <path id="_Path_20" data-name="&lt;Path&gt;" d="M393.3,241.69s-10.469.825-14.948,7.616-22.045,31.924-22.045,31.924-27.94-13.982-29.331-15.656-.613-5.022-.212-6.861,1.014-5.942,1.415-7.073c.707-2-2.358-1.462-4.008.4s-2.523,5.541-3.4,6.177-7.521-7.073-10.752-10.7-4.716-6.272-6.908-4.715c-1.556,1.108-.566,3.277,1.745,6.46a40.475,40.475,0,0,1,2.994,4.2c.283.566-.566,1.014-.92,1.32s-1.745,1.485-1.815,2.358a7.61,7.61,0,0,1,0,1.438c-.307,1.061-1.6,1.556-1.981,2.57s0,1.58-.118,2.358a13.526,13.526,0,0,1-.472,1.462,3.49,3.49,0,0,0,1.037,2.711c2.358,2.688,5.376,3.725,8.347,5.376,2.358,1.368,5.022,1.957,7.875,3.23s36.451,27.02,41.662,24.144,31.429-33.41,31.429-33.41C401.692,252.8,393.3,241.69,393.3,241.69Z" transform="translate(-302.361 -178.728)" fill="#cc9546"/>
        <g id="_Group_20" data-name="&lt;Group&gt;" transform="translate(76.505)">
          <g id="_Group_21" data-name="&lt;Group&gt;" transform="translate(3.268 1.962)">
            <path id="_Path_21" data-name="&lt;Path&gt;" d="M339.791,239.825s-6.7-7.545-1.815-15.208c5.753-9.03,16.835-10.563,29.991-7.073a23.319,23.319,0,0,1,16.5,21.22c.637,9.643-26.242,16.74-25.629,23.342Z" transform="translate(-336.194 -215.818)"/>
          </g>
          <g id="_Group_22" data-name="&lt;Group&gt;" transform="translate(0 28.916)">
            <path id="_Path_22" data-name="&lt;Path&gt;" d="M337.995,227.25s-3.655,5.847-3.136,6.437a9.076,9.076,0,0,0,2.947,1.179Z" transform="translate(-334.809 -227.25)" fill="#aa7835"/>
          </g>
          <g id="_Group_23" data-name="&lt;Group&gt;" transform="translate(2.817 8.646)">
            <path id="_Path_23" data-name="&lt;Path&gt;" d="M347.5,220.39c-3.654,2-9.926,5.706-11.2,19.357-1.3,14.029,1.933,18.862,3.89,20.56,1.32,1.2,7.969,1.462,11.388.307,4.291-1.462,13.557-6.342,17.754-13.675,4.951-8.63,5.706-19.97-.377-24.238A22.328,22.328,0,0,0,347.5,220.39Z" transform="translate(-336.003 -218.653)" fill="#cc9546"/>
          </g>
          <g id="_Group_24" data-name="&lt;Group&gt;" transform="translate(12.246 5.63)">
            <path id="_Path_24" data-name="&lt;Path&gt;" d="M340.987,222.741s-2.876,12.826,1.2,20.8c0,0,2.122-5.046,6.437-3.725s4.1,7.073.8,10.091a6.413,6.413,0,0,1-6.625,1.6,28.786,28.786,0,0,0,6.389,9.785s12.779,5.706,23.837-6.79c10.044-11.317,8.182-31.076-7.191-35.744S340.987,222.741,340.987,222.741Z" transform="translate(-340.002 -217.374)"/>
          </g>
          <path id="_Path_25" data-name="&lt;Path&gt;" d="M341.18,240.418v17.589l20.607-2.829a18.32,18.32,0,0,0,15.821-18.131V225.54l-16.339,10.516-7.734,6.838-7.828-.637Z" transform="translate(-326.158 -200.656)"/>
          <path id="_Path_26" data-name="&lt;Path&gt;" d="M338.08,220.536c-5.517,5.918-5.4,22.588,11.152,26.242l9.973-29.8C352.816,213.086,342.984,215.231,338.08,220.536Z" transform="translate(-334.799 -214.986)"/>
          <path id="_Path_27" data-name="&lt;Path&gt;" d="M341.564,234.083a3.255,3.255,0,0,1,2.051-6.177Z" transform="translate(-328.664 -197.67)"/>
        </g>
      </g>
      <path id="_Path_28" data-name="&lt;Path&gt;" d="M348,301.149l.943-10.186a38.5,38.5,0,0,0,15.4-5.824,20.89,20.89,0,0,1-12.261,7.639l-.943,12.968-.542,21.22Z" transform="translate(-240.392 -119.732)" fill="#263238"/>
    </g>
  </g>
</svg>
