<svg xmlns="http://www.w3.org/2000/svg" xmlns:xlink="http://www.w3.org/1999/xlink" width="867.546" height="581.658" viewBox="0 0 867.546 581.658">
  <defs>
    <linearGradient id="linear-gradient" y1="0.5" x2="1" y2="0.5" gradientUnits="objectBoundingBox">
      <stop offset="0" stop-color="#a979d0"/>
      <stop offset="1" stop-color="#fafafa"/>
    </linearGradient>
    <linearGradient id="linear-gradient-2" x1="0.001" x2="1" xlink:href="#linear-gradient"/>
    <linearGradient id="linear-gradient-3" x1="0" x2="1" xlink:href="#linear-gradient"/>
    <linearGradient id="linear-gradient-4" x1="0" x2="1" xlink:href="#linear-gradient"/>
    <linearGradient id="linear-gradient-5" x1="0" x2="1" xlink:href="#linear-gradient"/>
    <linearGradient id="linear-gradient-6" x1="0" x2="1" xlink:href="#linear-gradient"/>
    <linearGradient id="linear-gradient-7" x1="0" x2="1" xlink:href="#linear-gradient"/>
    <linearGradient id="linear-gradient-8" x1="0" x2="1" xlink:href="#linear-gradient"/>
    <linearGradient id="linear-gradient-11" x1="0" x2="1" xlink:href="#linear-gradient"/>
    <linearGradient id="linear-gradient-12" x1="0" y1="0.501" x2="1" y2="0.501" xlink:href="#linear-gradient"/>
    <linearGradient id="linear-gradient-13" x1="0" x2="1" xlink:href="#linear-gradient"/>
    <linearGradient id="linear-gradient-16" x1="0" x2="1" xlink:href="#linear-gradient"/>
    <linearGradient id="linear-gradient-17" x1="0" x2="1" xlink:href="#linear-gradient"/>
    <linearGradient id="linear-gradient-18" x1="0.001" x2="1" xlink:href="#linear-gradient"/>
    <linearGradient id="linear-gradient-19" x1="0" x2="0.999" xlink:href="#linear-gradient"/>
    <linearGradient id="linear-gradient-20" x1="-0.001" x2="1" xlink:href="#linear-gradient"/>
    <linearGradient id="linear-gradient-21" x1="0" y1="0.499" x2="1" y2="0.499" xlink:href="#linear-gradient"/>
    <linearGradient id="linear-gradient-22" x1="0" x2="1" xlink:href="#linear-gradient"/>
    <linearGradient id="linear-gradient-24" x1="0.5" y1="1" x2="0.5" gradientUnits="objectBoundingBox">
      <stop offset="0" stop-color="#c7c5c0"/>
      <stop offset="0.22" stop-color="#dcdbd8"/>
      <stop offset="0.47" stop-color="#edeceb"/>
      <stop offset="0.73" stop-color="#f7f7f6"/>
      <stop offset="1" stop-color="#fafafa"/>
    </linearGradient>
    <linearGradient id="linear-gradient-25" x1="-0.018" y1="0.5" x2="1.016" y2="0.5" gradientUnits="objectBoundingBox">
      <stop offset="0"/>
      <stop offset="0.49" stop-color="#a71d21"/>
      <stop offset="1"/>
    </linearGradient>
    <linearGradient id="linear-gradient-26" x1="-0.016" y1="0.501" x2="1.017" y2="0.501" xlink:href="#linear-gradient-25"/>
  </defs>
  <g id="Contact_us_Mesa_de_trabajo_1" data-name="Contact us_Mesa de trabajo 1" transform="translate(-81.65 -135.478)">
    <g id="Character" transform="translate(81.65 135.478)">
      <g id="Group_40" data-name="Group 40" transform="translate(0 233.687)" opacity="0.23">
        <path id="Path_42" data-name="Path 42" d="M260.414,281.282v-3.3L132.11,404.51h3.349Z" transform="translate(-2.106 -149.748)" fill="url(#linear-gradient)"/>
        <path id="Path_43" data-name="Path 43" d="M269.582,274.856q-.129-1.473-.309-2.946L126,413.018l2.989.3Z" transform="translate(-11.737 -159.095)" fill="url(#linear-gradient-2)"/>
        <path id="Path_44" data-name="Path 44" d="M96,422l.824.813.824.813L280.392,243.485l-.824-.813-.824-.813Z" transform="translate(-59.029 -205.364)" fill="url(#linear-gradient-3)"/>
        <path id="Path_45" data-name="Path 45" d="M247.646,288.766c.232-1.3.438-2.54.644-3.886L139,392.565l3.942-.635Z" transform="translate(8.756 -139.124)" fill="url(#linear-gradient-4)"/>
        <path id="Path_46" data-name="Path 46" d="M275.987,269.117q-.283-1.346-.593-2.667L120.58,419.063l2.705.584Z" transform="translate(-20.281 -167.502)" fill="url(#linear-gradient-5)"/>
        <path id="Path_47" data-name="Path 47" d="M194.517,305.75,159.89,339.884A129.1,129.1,0,0,0,194.517,305.75Z" transform="translate(41.686 -106.99)" fill="url(#linear-gradient-6)"/>
        <path id="Path_48" data-name="Path 48" d="M280.437,263.97c-.258-.813-.541-1.625-.824-2.54L115.6,423.212l2.576.813Z" transform="translate(-28.132 -175.231)" fill="url(#linear-gradient-7)"/>
        <path id="Path_49" data-name="Path 49" d="M99.3,424.745l1.8,1.473L282.97,246.938l-1.494-1.778Z" transform="translate(-53.827 -200.283)" fill="url(#linear-gradient-8)"/>
        <path id="Path_50" data-name="Path 50" d="M284.329,250.69l-1.34-1.93L102.9,426.288l1.958,1.321Z" transform="translate(-48.152 -194.74)" fill="url(#linear-gradient-8)"/>
        <path id="Path_51" data-name="Path 51" d="M284.442,254.743l-1.185-2.083L106.8,426.607l2.113,1.168Z" transform="translate(-42.004 -188.735)" fill="url(#linear-gradient-8)"/>
        <path id="Path_52" data-name="Path 52" d="M283.231,259.135l-1-2.235L111,425.59l2.267.991Z" transform="translate(-35.383 -182.206)" fill="url(#linear-gradient-11)"/>
        <path id="Path_53" data-name="Path 53" d="M228.31,298.27q.928-2.54,1.778-5.079L147.36,374.741q2.576-.813,5.153-1.752Z" transform="translate(21.934 -126.329)" fill="url(#linear-gradient-12)"/>
        <path id="Path_54" data-name="Path 54" d="M257.864,232.6l-2.267-.99L85.71,398.979l1,2.235Z" transform="translate(-75.25 -221.146)" fill="url(#linear-gradient-13)"/>
        <path id="Path_55" data-name="Path 55" d="M265.426,234.838l-2.113-1.168L87.81,406.7,89,408.785Z" transform="translate(-71.94 -217.974)" fill="url(#linear-gradient-8)"/>
        <path id="Path_56" data-name="Path 56" d="M271.669,237.421l-1.958-1.321L90.24,413.018l1.34,1.93Z" transform="translate(-68.109 -214.233)" fill="url(#linear-gradient-6)"/>
        <path id="Path_57" data-name="Path 57" d="M276.567,240.313l-1.8-1.473L93,418.1l1.494,1.778Z" transform="translate(-63.758 -210.014)" fill="url(#linear-gradient-16)"/>
        <path id="Path_58" data-name="Path 58" d="M191.379,228l-3.942.635L82.784,331.825c-.232,1.3-.438,2.54-.644,3.886Z" transform="translate(-80.878 -226.705)" fill="url(#linear-gradient-17)"/>
        <path id="Path_59" data-name="Path 59" d="M124.872,236.09A129.1,129.1,0,0,0,90.22,270.25Z" transform="translate(-68.14 -214.248)" fill="url(#linear-gradient-18)"/>
        <path id="Path_60" data-name="Path 60" d="M248.889,230.643l-2.576-.813L84,389.834c.258.813.541,1.625.824,2.54Z" transform="translate(-77.946 -223.887)" fill="url(#linear-gradient-19)"/>
        <path id="Path_61" data-name="Path 61" d="M209.954,227.49H206.6L81.65,350.693v3.3Z" transform="translate(-81.65 -227.49)" fill="url(#linear-gradient-20)"/>
        <path id="Path_62" data-name="Path 62" d="M85.868,306.446q-.927,2.54-1.778,5.079L166.818,230q-2.576.813-5.153,1.752Z" transform="translate(-77.804 -223.625)" fill="url(#linear-gradient-21)"/>
        <path id="Path_63" data-name="Path 63" d="M238.135,229.1l-2.705-.584L82.65,379.051q.283,1.346.593,2.667Z" transform="translate(-80.074 -225.904)" fill="url(#linear-gradient-22)"/>
        <path id="Path_64" data-name="Path 64" d="M225.283,227.995l-2.989-.3L81.83,366.182q.129,1.473.309,2.946Z" transform="translate(-81.366 -227.182)" fill="url(#linear-gradient-8)"/>
      </g>
      <ellipse id="Ellipse_11" data-name="Ellipse 11" cx="29.628" cy="29.207" rx="29.628" ry="29.207" transform="translate(85.948 203.007)" fill="#d3e3fd"/>
      <path id="Path_65" data-name="Path 65" d="M245.207,323.99c-5.307-1.4-13.6-14.527-20.457-15.238s-15.149,7.365-22.157,2.337-7.729-26.566-15.664-30.883-13.99.508-17.081-4.546.928-22.35-6.261-28.445-13.037-4.064-14.479-9.4,2.86-13.765-2.937-21.766-7.987-18.185.67-13.435,16.386,10.769,25.094,8.864,7.111,12.7,13.32,16.254,15.458-2.413,20.4.711,5.41,19.708,9.61,21.258,20.946-9.93,28.778-6.7-1.752,24.153,6.647,27.277,18.6,7.086,18.6,7.086Z" transform="translate(12.019 -33.971)" fill="#c3e1c1"/>
      <path id="Path_66" data-name="Path 66" d="M148.26,209.67s9.455,30.731,94.09,84.167l5.385-8.61S179.331,255.919,148.26,209.67Z" transform="translate(23.353 -21.241)" fill="#abcbb9"/>
      <path id="Path_67" data-name="Path 67" d="M156.44,272c-18.885,12.419-29.6,73.881,6.93,75.126,25.171.863,35.09-21.512,25.764-28.47-23.754-17.474-51.528,43.988-23.754,56.408,13.062,5.867,26.331-3.479,40.63-14.857,21.873-17.4,46.169-39.569,75.874-19.3" transform="translate(8.912 74.731)" fill="none" stroke="#b81d21" stroke-miterlimit="10" stroke-width="2"/>
      <ellipse id="Ellipse_12" data-name="Ellipse 12" cx="36.791" cy="8.838" rx="36.791" ry="8.838" transform="translate(549.671 529.212)" fill="#e5e9f2"/>
      <ellipse id="Ellipse_13" data-name="Ellipse 13" cx="36.791" cy="8.838" rx="36.791" ry="8.838" transform="translate(339.98 563.981)" fill="#e5e9f2"/>
      <path id="Path_68" data-name="Path 68" d="M674,355.515H255.677a149.726,149.726,0,0,1-43.1-6.349L147.52,329.61H788.6l-74.973,20.572A149.761,149.761,0,0,1,674,355.515Z" transform="translate(22.186 163.436)" fill="#e5e9f2"/>
      <path id="Path_69" data-name="Path 69" d="M463.127,192.929a150.523,150.523,0,0,0-37.435,2.54,33.014,33.014,0,0,0-22.621,15.238c-8.785,14.3-22.363,36.979-25.223,44.9,0,0-24.141-3.708-37.77-11.861L334.05,255.61s13.887,9.473,54.748,22.655a195.815,195.815,0,0,0,18.6-35.556s-1.365,9.753,3.272,26.972c3.684,13.638-4.947,66.846-4.947,66.846l88.885-3.149-7.291-52.9,10.769-13.664a17.414,17.414,0,0,0,3.5-13.638,144.593,144.593,0,0,0-15.072-45.106,29.6,29.6,0,0,0-23.393-15.137Z" transform="translate(316.229 -47.396)" fill="#bd5c26"/>
      <path id="Path_70" data-name="Path 70" d="M396.093,231.845l-3.246-22.375s-4.38,29.41-6.286,33.017Z" transform="translate(399.005 -21.549)" fill="#9a4911"/>
      <path id="Path_71" data-name="Path 71" d="M389.493,232.125c-4.534,1.549-16.18,5.206-15.1,7.619.618,1.346,8.837-1.854,9.739-.762s-2.241,5.079-7.5,7.848c-4.071,2.108-6.9,1.676-7.085,3.606-.206,2.54,11.851,2.184,14.917,1.8a17.288,17.288,0,0,0,8.141-3.4,55.219,55.219,0,0,0,5.513-5.613,46.79,46.79,0,0,1,7.523-5.664l-6-9.6S392.095,231.211,389.493,232.125Z" transform="translate(372.189 6.921)" fill="#cc9546"/>
      <path id="Path_72" data-name="Path 72" d="M372.51,190.344l1.881,21.334s11.723,9.88,21.9-1.27l-5.668-25.778Z" transform="translate(376.857 -59.796)" fill="#af7a35"/>
      <path id="Path_73" data-name="Path 73" d="M419.615,169.864a32.771,32.771,0,0,1,9.893,24.432c0,16.483-19.761,39.722-37.847,39.722-15.948,0-28.881-16.153-28.881-36.09,0-15.238,7.729-28.166,18.318-33.6a34.856,34.856,0,0,1,38.517,5.537Z" transform="translate(361.519 -96.384)" fill="#cc9546"/>
      <path id="Path_74" data-name="Path 74" d="M371.69,178.16a49.343,49.343,0,0,0-1.237,4.952,3.359,3.359,0,0,0,.258,2.108,3.893,3.893,0,0,0,1.984,1.321,3.019,3.019,0,0,1-2.757-.711,3.444,3.444,0,0,1-.773-2.87,7.847,7.847,0,0,1,.9-2.54A8.256,8.256,0,0,1,371.69,178.16Z" transform="translate(371.493 -69.758)" fill="#d3b494"/>
      <ellipse id="Ellipse_14" data-name="Ellipse 14" cx="4.045" cy="2.87" rx="4.045" ry="2.87" transform="translate(726.798 109.088)" fill="#d0a882"/>
      <ellipse id="Ellipse_15" data-name="Ellipse 15" cx="4.921" cy="3.2" rx="4.921" ry="3.2" transform="translate(755.756 108.91)" fill="#d0a882"/>
      <ellipse id="Ellipse_16" data-name="Ellipse 16" cx="72.396" cy="12.419" rx="72.396" ry="12.419" transform="translate(682.741 489.82)" fill="#e5e9f2"/>
      <path id="Path_75" data-name="Path 75" d="M411.316,324s4.174.838,3.581,7.06a142.941,142.941,0,0,0-.386,14.578l-1.778.686a39.163,39.163,0,0,0-1.52-7.619c-.541,0-4.045,7.619-8.193,9.245s-14.66,5.079-17.648,2.032,4.019-6.3,7.729-8.483S411.316,324,411.316,324Z" transform="translate(395.993 154.798)" fill="#3c3c3c"/>
      <path id="Path_76" data-name="Path 76" d="M392.988,317.838s4.38,17.042,2.241,24.356S387.5,355.782,386.8,357.23s7.729.508,10.821-2.057,10.924-15.823,10.306-17.6a117.687,117.687,0,0,1-1.288-22.5Z" transform="translate(399.327 141.048)" fill="#cc9546"/>
      <path id="Path_77" data-name="Path 77" d="M386.36,324.73s4.019,1.4,2.576,7.467a143.107,143.107,0,0,0-2.345,14.4l-1.855.432a39.093,39.093,0,0,0-.49-7.619c-.515-.152-4.844,7.035-9.2,8.2s-15.458,2.946-18.035-.432,4.844-5.714,8.837-7.365S386.36,324.73,386.36,324.73Z" transform="translate(351.593 155.922)" fill="#3c3c3c"/>
      <path id="Path_78" data-name="Path 78" d="M370.373,316.709s2.035,17.473-1.082,24.458-9.61,12.419-10.306,13.791,7.729,1.524,11-.609,12.882-14.223,12.727-16.051a117.712,117.712,0,0,1,1.778-22.477Z" transform="translate(355.472 142.203)" fill="#cc9546"/>
      <path id="Path_79" data-name="Path 79" d="M367.16,251.189s-7.523,74.237-8.554,99.05c-.927,21.867,9.43,89.628,9.43,89.628l18.035-1.524s2.113-64.967,7.214-86.605L408.742,285.7l7.961,62.63c2.834,22.248,17.88,91.126,17.88,91.126l21.152-.914s-5.616-69.513-5.307-92.675c.335-24.458,5.694-97.831,5.694-97.831Z" transform="translate(354.846 37.839)" fill="#303b9e"/>
      <path id="Path_80" data-name="Path 80" d="M367.16,249.911s-7.523,74.237-8.554,99.05c-.927,21.867,9.43,89.628,9.43,89.628l18.035-1.524s2.113-64.967,7.214-86.605l15.458-66.033s-10.306-12.343-13.526-35.556Z" transform="translate(354.846 39.117)" fill="#1f2a95"/>
      <path id="Path_81" data-name="Path 81" d="M433.074,197.929s-3.968,12.089-23.187,1.117a144.026,144.026,0,0,1-31.561-24.153s-6.312,15.975-16.206,22.4a87.534,87.534,0,0,1,2.422-16.915c2.061-6.451,7.935-19.81,28.34-20.623C439.1,157.928,433.074,197.929,433.074,197.929Z" transform="translate(360.478 -98.188)" fill="#444"/>
      <path id="Path_82" data-name="Path 82" d="M401.8,190.031a14.557,14.557,0,0,0,6.544-17.778c-4.148-11.911-20.173-18.362-28.34-7.619" transform="translate(388.664 -99.001)" fill="#444"/>
      <ellipse id="Ellipse_17" data-name="Ellipse 17" cx="1.675" cy="2.565" rx="1.675" ry="2.565" transform="translate(751.016 98.294)" fill="#444"/>
      <ellipse id="Ellipse_18" data-name="Ellipse 18" cx="1.752" cy="2.565" rx="1.752" ry="2.565" transform="translate(733.522 99.259)" fill="#444"/>
      <path id="Path_83" data-name="Path 83" d="M382.927,182.93s-8.27,3.86-14.866.61C367.907,186.968,376.435,193.673,382.927,182.93Z" transform="translate(369.841 -62.413)" fill="#e7f0fd"/>
      <path id="Path_84" data-name="Path 84" d="M383.951,184.575c-2.19,6.68.258,13.308,5.488,14.807s11.259-2.692,13.449-9.372S402.629,176.7,397.4,175.2,386.166,177.921,383.951,184.575Z" transform="translate(393.628 -74.776)"/>
      <path id="Path_85" data-name="Path 85" d="M403.987,182.8a29.263,29.263,0,0,1-29.4,10.362" transform="translate(380.136 -62.614)" fill="none" stroke="#000" stroke-linecap="round" stroke-miterlimit="10" stroke-width="1"/>
      <path id="Path_109" data-name="Path 109" d="M1.9,0A1.93,1.93,0,0,1,3.811,1.936a1.907,1.907,0,0,1-1.9,1.927A1.93,1.93,0,0,1,0,1.927,1.907,1.907,0,0,1,1.9,0Z" transform="translate(752.631 132.047) rotate(-79.65)"/>
      <path id="Path_86" data-name="Path 86" d="M428.913,208.641s5.565-50.236-34.807-50.541c-9.223,0-25.764,3.327-30.556,19.251" transform="translate(362.732 -100.645)" fill="none" stroke="#000" stroke-linecap="round" stroke-miterlimit="10" stroke-width="1"/>
      <path id="Path_87" data-name="Path 87" d="M646.593,283.788h0L451.149,177.119a68.093,68.093,0,0,0-65.079,0l-195.5,106.669h0a27.246,27.246,0,0,0-14.454,24v268.2a27.526,27.526,0,0,0,27.7,27.328H633.377a27.5,27.5,0,0,0,27.7-27.328V307.814a27.246,27.246,0,0,0-14.479-24.026Z" transform="translate(67.271 -84.108)" fill="#c29323"/>
      <path id="Path_88" data-name="Path 88" d="M282.74,218.254c2.216-4.927,16.7-10.972,18.37-17.55s-5-15.9,1.108-21.943,27.825-3.3,33.493-10.413,1.675-13.715,7.24-15.9,22.26,4.394,29.5-1.651,6.132-12.064,11.7-12.7,13.346,4.927,22.26.559,19.478-4.927,13.346,2.743-13.346,14.273-12.882,23.035-13.912,4.927-18.37,10.413,0,15.238-3.89,19.759-20.611,2.184-22.827,6.045,6.673,21.943,2.216,29.08-23.935-5.486-28.34,2.184-10.022,17.016-10.022,17.016Z" transform="translate(235.345 -135.478)" fill="#c3e1c1"/>
      <path id="Path_89" data-name="Path 89" d="M388.046,141.51s-32.282,4.394-99.036,78.453l7.729,6.578S336.853,164.546,388.046,141.51Z" transform="translate(245.229 -126.19)" fill="#abcbb9"/>
      <path id="Path_90" data-name="Path 90" d="M229.468,165.38h310.48A31.543,31.543,0,0,1,571.715,196.7v344.9H197.65V196.72a31.09,31.09,0,0,1,9.313-22.177,32,32,0,0,1,22.5-9.163Z" transform="translate(101.21 -89.436)" fill="url(#linear-gradient-24)"/>
      <g id="Group_41" data-name="Group 41" transform="translate(346.317 131.514)">
        <rect id="Rectangle_26" data-name="Rectangle 26" width="279.177" height="2.159" fill="#e0e1e4"/>
        <rect id="Rectangle_27" data-name="Rectangle 27" width="279.177" height="2.159" transform="translate(0 30.426)" fill="#e0e1e4"/>
        <rect id="Rectangle_28" data-name="Rectangle 28" width="279.177" height="2.159" transform="translate(0 60.827)" fill="#e0e1e4"/>
        <rect id="Rectangle_29" data-name="Rectangle 29" width="279.177" height="2.159" transform="translate(0 91.253)" fill="#e0e1e4"/>
        <rect id="Rectangle_30" data-name="Rectangle 30" width="279.177" height="2.159" transform="translate(0 121.654)" fill="#e0e1e4"/>
        <rect id="Rectangle_31" data-name="Rectangle 31" width="279.177" height="2.159" transform="translate(0 152.08)" fill="#e0e1e4"/>
        <rect id="Rectangle_32" data-name="Rectangle 32" width="279.177" height="2.159" transform="translate(0 182.48)" fill="#e0e1e4"/>
        <rect id="Rectangle_33" data-name="Rectangle 33" width="279.177" height="2.159" transform="translate(0 212.907)" fill="#e0e1e4"/>
      </g>
      <path id="Path_91" data-name="Path 91" d="M620.37,243.576l-204.127,201.2a1.146,1.146,0,0,1-1.6,0l-204.1-201.2a49,49,0,0,0-34.395-14.045h0V482.82a27.527,27.527,0,0,0,27.722,27.328H633.329a27.5,27.5,0,0,0,27.7-27.3V229.43h-6.286a49,49,0,0,0-34.369,14.146Z" transform="translate(67.318 9.185)" fill="#ecb52b"/>
      <path id="Path_92" data-name="Path 92" d="M487.537,286.48l-71.366,70.351a1.145,1.145,0,0,1-1.6,0l-70.181-69.284L176.13,385.225v9.626a27.527,27.527,0,0,0,27.7,27.328H633.361a27.527,27.527,0,0,0,27.7-27.328v-8.61Z" transform="translate(67.287 97.027)" fill="#e5e5e4"/>
      <path id="Path_93" data-name="Path 93" d="M661.067,408.4v-8L451.143,285.959a68.093,68.093,0,0,0-65.079,0L176.14,400.4v8.127a27.527,27.527,0,0,0,27.7,27.328H633.345A27.9,27.9,0,0,0,653,427.813,27.1,27.1,0,0,0,661.067,408.4Z" transform="translate(67.302 83.478)" fill="#efc22e"/>
      <path id="Path_94" data-name="Path 94" d="M325.935,334.359c0,5.079.824-3.225,16.695-3.225,12.057,0,1.082,31.036-18.035,32.1a5.467,5.467,0,0,0-3.272,6.476c.824,5.079,34.755-6.756,34.755-34.541C355.976,316.555,325.935,320.339,325.935,334.359Z" transform="translate(295.875 152.49)" fill="#fdfdfd"/>
      <path id="Path_95" data-name="Path 95" d="M291.47,319.92s2.216,72.2,48.333,72.2c41.712,0,46.375-72.2,46.375-72.2Z" transform="translate(249.107 148.516)" fill="#fdfdfd"/>
      <path id="Path_96" data-name="Path 96" d="M303.305,324.353A48.873,48.873,0,0,1,293,322.27c1.829,17.524,9.971,66.44,44.365,66.211a34.5,34.5,0,0,0,6.415-.635C313.2,382.386,305.238,341.9,303.305,324.353Z" transform="translate(251.519 152.134)" fill="#ebf3ff"/>
      <ellipse id="Ellipse_20" data-name="Ellipse 20" cx="47.38" cy="7.441" rx="47.38" ry="7.441" transform="translate(540.603 460.994)" fill="#ebf3ff"/>
      <ellipse id="Ellipse_21" data-name="Ellipse 21" cx="42.304" cy="5.841" rx="42.304" ry="5.841" transform="translate(545.678 462.594)" fill="#fdfdfd"/>
      <path id="Path_97" data-name="Path 97" d="M297.14,322.674a250.875,250.875,0,0,0,65.569,0,250.869,250.869,0,0,0-65.569,0Z" transform="translate(258.045 149.444)" fill="#606060"/>
      <path id="Path_98" data-name="Path 98" d="M285.815,197.609c-43.412,3.353-85.613,45.969-93.806,54.681s-49.57,52.09-50.884,94.987c-.773,25.042,16.772,49.449,27.438,57.6l48.951-60.751s-7.909-7.772-25.223-12.546c0,0,4.277-21.816,30.917-49.271,25.042-25.905,49.132-33.474,49.132-33.474,5.668,16.813,13.938,24.229,13.938,24.229l59.257-51.227C336.647,211.73,311.166,195.653,285.815,197.609Z" transform="translate(12.067 -40.063)" fill="#b81d21"/>
      <path id="Path_99" data-name="Path 99" d="M206.914,259.561l-8.76-6.476c-5.771-4.445-21.307,5.664-34.678,22.578s-19.555,34.21-13.784,38.655l8.76,6.476Z" transform="translate(22.203 43.994)" fill="#8c000e"/>
      <path id="Path_110" data-name="Path 110" d="M38.953,0c21.564.15,39.086,6.169,39.136,13.443S60.7,26.5,39.136,26.346.051,20.177,0,12.9,17.39-.147,38.953,0Z" transform="matrix(0.615, -0.788, 0.788, 0.615, 170.465, 356.811)" fill="#8c000e"/>
      <g id="Group_42" data-name="Group 42" transform="translate(178.106 302.289)">
        <path id="Path_100" data-name="Path 100" d="M153.331,317.027a6.294,6.294,0,0,1-2.448-4.8,18.908,18.908,0,0,1,.232-5.511,50.284,50.284,0,0,1,3.427-10.438,95.55,95.55,0,0,1,27.1-34.236,51.652,51.652,0,0,1,9.455-5.816,19.662,19.662,0,0,1,5.385-1.575,6.487,6.487,0,0,1,5.307,1.168,6.576,6.576,0,0,0-5.153-.508,18.669,18.669,0,0,0-4.921,2.032,51.021,51.021,0,0,0-8.76,6.222,122.4,122.4,0,0,0-26.563,33.55,50.054,50.054,0,0,0-3.993,9.88,18.048,18.048,0,0,0-.8,5.207,6.345,6.345,0,0,0,1.726,4.825Z" transform="translate(-150.78 -254.501)" fill="url(#linear-gradient-25)"/>
      </g>
      <path id="Path_101" data-name="Path 101" d="M262.057,213.018l-7.368-7.975c-4.818-5.41-22,1.651-38.337,15.823s-25.764,30.02-20.843,35.556l7.368,7.975Z" transform="translate(95.777 -31.166)" fill="#8c000e"/>
      <path id="Path_111" data-name="Path 111" d="M39.056,0C60.677.156,78.246,6.162,78.3,13.417S60.864,26.429,39.242,26.276.052,20.116,0,12.862,17.434-.15,39.056,0Z" transform="translate(290.145 223.492) rotate(-41.29)" fill="#8c000e"/>
      <g id="Group_43" data-name="Group 43" transform="translate(297.063 179.623)">
        <path id="Path_102" data-name="Path 102" d="M198.518,259.683a6.262,6.262,0,0,1-1.494-5.079,18.949,18.949,0,0,1,1.288-5.384,50.58,50.58,0,0,1,5.333-9.626,96.266,96.266,0,0,1,33.107-28.826,51.977,51.977,0,0,1,10.306-3.987,19.722,19.722,0,0,1,5.591-.559,6.458,6.458,0,0,1,5,2.133,6.557,6.557,0,0,0-5.024-1.448A18.754,18.754,0,0,0,247.469,208a51.385,51.385,0,0,0-9.764,4.5,123.372,123.372,0,0,0-32.437,28.089,50.344,50.344,0,0,0-5.771,8.965,18.088,18.088,0,0,0-1.752,5.079,6.323,6.323,0,0,0,.773,5.054Z" transform="translate(-196.952 -206.203)" fill="url(#linear-gradient-26)"/>
      </g>
      <path id="Path_103" data-name="Path 103" d="M143.55,319.211s29.19-79.85,110.939-117.641C254.489,201.57,189.178,231.056,143.55,319.211Z" transform="translate(15.928 -33.713)" fill="#e89f9f"/>
      <path id="Path_104" data-name="Path 104" d="M248.568,216.7s-23.187,2.692-57.3,33.144c-24.089,21.588-35.4,51.811-35.4,51.811a27.72,27.72,0,0,1,9.533-.3,154.551,154.551,0,0,1,83.166-84.65Z" transform="translate(35.349 -10.416)" fill="#8c000e"/>
      <path id="Path_105" data-name="Path 105" d="M206.984,197.13a30.47,30.47,0,0,0,1.185,4.521,7.056,7.056,0,0,0,1.391,2.54,2.33,2.33,0,0,0,1.623.813,3.829,3.829,0,0,0,1.881-.508,5.094,5.094,0,0,0,2.576-3.175,14.379,14.379,0,0,0,.541-5.384,29.841,29.841,0,0,0-1.34-6.832,42.414,42.414,0,0,0-3.22-7.619,27.612,27.612,0,0,0-5.513-7.34,18.083,18.083,0,0,0-6.7-4.013,17.16,17.16,0,0,0-7.729-.61,25.5,25.5,0,0,0-8.348,2.794,26.146,26.146,0,0,0-9.378,8.026,28.458,28.458,0,0,0-4.766,11.149,36.31,36.31,0,0,0,0,13,43.571,43.571,0,0,0,4.741,13.588,34.935,34.935,0,0,0,7.008,9.346,23.247,23.247,0,0,0,8.373,5.079,21.259,21.259,0,0,0,9.3.889,28.623,28.623,0,0,0,9.868-3.2,51.672,51.672,0,0,0,5.719-3.429,48.55,48.55,0,0,0,4.328-3.378,29.056,29.056,0,0,0,3.014-3.048,17.366,17.366,0,0,0,1.778-2.54,7.13,7.13,0,0,1,1.752-1.8,3.455,3.455,0,0,1,1.6-.61,2.608,2.608,0,0,1,1.443.279,5.848,5.848,0,0,1,1.211.838l2.886,3.022a44.754,44.754,0,0,1-3.375,5.079,46.551,46.551,0,0,1-4.431,5.079,48.773,48.773,0,0,1-5.616,4.749,54.852,54.852,0,0,1-6.879,4.241,38.466,38.466,0,0,1-13.835,4.368,31,31,0,0,1-12.882-1.3,32.229,32.229,0,0,1-11.413-6.654,42.006,42.006,0,0,1-9.275-11.556,47.081,47.081,0,0,1-4.328-11.2,48.331,48.331,0,0,1-1.391-11.531,45.7,45.7,0,0,1,1.417-11.251,42.809,42.809,0,0,1,4.1-10.337,40,40,0,0,1,6.647-8.788,36.915,36.915,0,0,1,9.12-6.654A31.394,31.394,0,0,1,191.4,160.3a28.73,28.73,0,0,1,11.31,1.016,29.036,29.036,0,0,1,10.177,5.46,32.385,32.385,0,0,1,7.961,9.9,36.754,36.754,0,0,1,3.916,11.1,30.75,30.75,0,0,1,0,10.667,23.8,23.8,0,0,1-3.53,9.067,18.428,18.428,0,0,1-7.008,6.324,11.8,11.8,0,0,1-2.576.99,7.837,7.837,0,0,1-2.576.2,7.97,7.97,0,0,1-2.576-.737,8.368,8.368,0,0,1-2.576-1.854,19.465,19.465,0,0,1-3.427,7.035,16.638,16.638,0,0,1-5.153,4.292,10.7,10.7,0,0,1-4.534,1.321,9.288,9.288,0,0,1-4.122-.762,11.306,11.306,0,0,1-3.555-2.54,17.4,17.4,0,0,1-2.886-3.987A25.5,25.5,0,0,1,178,211.937a27.008,27.008,0,0,1-.825-6.527,28.384,28.384,0,0,1,.8-6.781A24.9,24.9,0,0,1,180.55,192a27.338,27.338,0,0,1,4.792-6.019,30.673,30.673,0,0,1,7.111-5.08q1.855-.965,3.4-1.6a27.281,27.281,0,0,1,2.937-1.041,22.559,22.559,0,0,1,2.576-.584q1.357-.208,2.731-.279Zm-11.568-7.619a14.823,14.823,0,0,0-1.932.838,9.267,9.267,0,0,0-3.555,3.4,15.109,15.109,0,0,0-1.984,5.079,18.958,18.958,0,0,0-.155,6.045,17.2,17.2,0,0,0,1.932,6.019q2.164,4.013,4.921,2.54a5.452,5.452,0,0,0,2.576-3.124,9.323,9.323,0,0,0,.49-2.794,18.489,18.489,0,0,0-.335-3.835Z" transform="translate(39.936 -97.516)" fill="#627df8"/>
      <ellipse id="Ellipse_24" data-name="Ellipse 24" cx="9.12" cy="8.991" rx="9.12" ry="8.991" transform="translate(369.221 34.013)" fill="#ecb52b"/>
      <ellipse id="Ellipse_25" data-name="Ellipse 25" cx="4.56" cy="4.495" rx="4.56" ry="4.495" transform="translate(177.977 475.344)" fill="#ecb52b"/>
      <ellipse id="Ellipse_26" data-name="Ellipse 26" cx="12.599" cy="12.419" rx="12.599" ry="12.419" transform="translate(842.349 33.734)" fill="#cfefcd"/>
      <ellipse id="Ellipse_27" data-name="Ellipse 27" cx="59.514" cy="58.668" rx="59.514" ry="58.668" transform="translate(320.605 457.744)" fill="#4f69cb"/>
      <path id="Path_106" data-name="Path 106" d="M251.875,345.355A13.259,13.259,0,1,0,238.426,332.1,13.354,13.354,0,0,0,251.875,345.355Zm-5.153,62.224c-4.715-4.241,17.391-40.636,14.505-52.446-2.113-8.635-37.332-2.971-37.693-.432,0,0,10.151-1.27,11.954,3.378s-11.954,32.559-14.505,43.176,9.43,13.969,17.391,13.969c9.43,0,24.656-6.349,24.3-9.3s-11.156,5.867-15.87,1.651Z" transform="translate(137.443 146.853)" fill="#f7fafb"/>
      <path id="Path_107" data-name="Path 107" d="M393.356,166.843v-1.27a17.268,17.268,0,0,0-17.391-17.143H356.9a17.268,17.268,0,0,0-17.391,17.143v1.27A17.268,17.268,0,0,0,356.9,183.986h19.735a19.071,19.071,0,0,0,15.458,8.686,15.093,15.093,0,0,1-7.729-10.845,17.081,17.081,0,0,0,8.992-14.984Z" transform="translate(324.836 -115.535)" fill="#ecb52b"/>
      <ellipse id="Ellipse_28" data-name="Ellipse 28" cx="2.911" cy="2.87" rx="2.911" ry="2.87" transform="translate(677.975 47.931)" fill="#fdfdfd"/>
      <ellipse id="Ellipse_29" data-name="Ellipse 29" cx="2.911" cy="2.87" rx="2.911" ry="2.87" transform="translate(688.564 47.931)" fill="#fdfdfd"/>
      <ellipse id="Ellipse_30" data-name="Ellipse 30" cx="2.911" cy="2.87" rx="2.911" ry="2.87" transform="translate(699.179 47.931)" fill="#fdfdfd"/>
    </g>
  </g>
</svg>
