<svg xmlns="http://www.w3.org/2000/svg" width="112.811" height="111.828" viewBox="0 0 112.811 111.828">
  <path id="Path_2" data-name="Path 2" d="M129.548,86.725c-1.223-3.319-3.319-5.589-24.452,1.572-19.911,6.812-21.309,10.3-20.261,13.8,1.223,3.319,5.938,4.716,24.452-1.572C127.277,94.235,130.6,90.043,129.548,86.725Zm-2.1,1.747a5.914,5.914,0,0,0-.524,1.4,8.471,8.471,0,0,1-3.843,3.493c-1.921.873-4.192,2.1-6.637,2.969-2.445,1.048-5.065,2.1-7.685,2.969a69.178,69.178,0,0,1-8.034,2.271c-2.62.524-4.89,1.223-6.986,1.572a17.142,17.142,0,0,1-5.065.175,6.835,6.835,0,0,1-1.921-.524s.7.175,1.921.349a19.753,19.753,0,0,0,5.065-.524c2.1-.524,4.366-1.223,6.986-1.921a67.772,67.772,0,0,0,7.86-2.445c2.62-.873,5.24-1.921,7.685-2.969,1.223-.524,2.445-.873,3.493-1.4s2.1-.873,3.144-1.4a9.067,9.067,0,0,0,3.843-3.144,1.744,1.744,0,0,0,.7-.873.765.765,0,0,1,.175-.524A1.351,1.351,0,0,1,127.452,88.471Zm2.1,22.357c-1.223-3.319-3.319-5.589-24.452,1.572-19.911,6.812-21.309,10.3-20.261,13.8,1.223,3.319,5.938,4.716,24.452-1.572C127.277,118.338,130.6,114.146,129.548,110.828Zm-2.1,1.921a5.913,5.913,0,0,0-.524,1.4,8.471,8.471,0,0,1-3.843,3.493c-1.921.873-4.192,2.1-6.637,2.969-2.445,1.048-5.065,2.1-7.685,2.969a69.179,69.179,0,0,1-8.034,2.271c-2.62.524-4.89,1.223-6.986,1.572a17.142,17.142,0,0,1-5.065.175,6.835,6.835,0,0,1-1.921-.524s.7.175,1.921.349a19.752,19.752,0,0,0,5.065-.524c2.1-.524,4.366-1.223,6.986-1.921a67.766,67.766,0,0,0,7.86-2.445c2.62-.873,5.24-1.921,7.685-2.969,1.223-.524,2.445-.873,3.493-1.4s2.1-.873,3.144-1.4a9.067,9.067,0,0,0,3.843-3.144c.349-.175.524-.7.7-.873a.765.765,0,0,1,.175-.524A1.352,1.352,0,0,1,127.452,112.749ZM60.033,124.626c1.4-3.144,1.572-6.288-18.689-15.719-19.213-8.733-22.531-7.161-24.1-4.017-1.4,3.144,1.048,7.51,18.689,15.719C53.222,128.643,58.636,127.945,60.033,124.626Zm-2.62,0a5.914,5.914,0,0,1-1.4.524,8.465,8.465,0,0,1-5.065-.175c-1.921-.7-4.366-1.4-6.812-2.445-2.445-.873-5.065-1.921-7.685-3.144s-5.065-2.62-7.336-3.842q-3.406-2.1-6.288-3.668a15.466,15.466,0,0,1-3.843-3.493l-1.048-1.572a6.836,6.836,0,0,0,1.223,1.572,21.43,21.43,0,0,0,4.017,3.144c1.747,1.048,4.017,2.1,6.288,3.493a71.792,71.792,0,0,0,7.336,3.668c2.62,1.223,5.065,2.271,7.685,3.319,1.223.524,2.445,1.048,3.493,1.4s2.271.873,3.144,1.223a10.164,10.164,0,0,0,4.89.524,12.039,12.039,0,0,0,1.4-.524l.349-.175ZM74.355,95.807c1.223-3.319.873-6.462-20.086-13.8-19.911-6.986-23.23-5.065-24.278-1.747-1.223,3.319,1.747,7.336,20.086,13.8C67.893,100.348,73.133,99.126,74.355,95.807Zm-2.795.175a7.6,7.6,0,0,1-1.223.7,7.877,7.877,0,0,1-5.065.349c-2.1-.524-4.541-1.048-6.986-1.747-2.62-.7-5.24-1.572-8.034-2.445-2.62-.873-5.24-2.1-7.685-3.144S38.026,87.6,36.1,86.55a18.708,18.708,0,0,1-4.192-2.969,6.835,6.835,0,0,1-1.223-1.572,10.547,10.547,0,0,0,1.223,1.4A24.639,24.639,0,0,0,36.1,86.2c1.921.873,4.192,1.747,6.637,2.795s5.065,2.1,7.685,2.969,5.414,1.747,7.86,2.445l3.668,1.048a31.487,31.487,0,0,0,3.319.873,9.135,9.135,0,0,0,4.89,0,2.257,2.257,0,0,0,1.4-.349l.349-.349S71.91,95.807,71.561,95.982Zm39.648-23.055c1.048-3.319.873-6.462-20.435-13.449-20.086-6.637-23.23-4.541-24.452-1.223-1.048,3.319,1.921,7.336,20.435,13.449C104.921,77.643,110.161,76.245,111.209,72.927Zm-2.795.175a7.594,7.594,0,0,1-1.223.7,8.867,8.867,0,0,1-5.065.524,64.641,64.641,0,0,1-6.986-1.572c-2.62-.7-5.24-1.4-8.034-2.271a78.346,78.346,0,0,1-7.685-2.969c-2.445-1.048-4.716-2.1-6.637-2.969a14.412,14.412,0,0,1-4.192-2.969A6.835,6.835,0,0,1,67.369,60a7.777,7.777,0,0,0,1.4,1.4,15.855,15.855,0,0,0,4.367,2.62c1.921.873,4.192,1.747,6.637,2.795a57.522,57.522,0,0,0,7.685,2.795,77.7,77.7,0,0,0,7.86,2.271l3.668,1.048c1.223.349,2.271.524,3.319.873a7.489,7.489,0,0,0,4.89-.175,2,2,0,0,0,1.223-.524l.349-.349S108.763,72.927,108.414,73.1ZM68.766,47.776c-.873-3.493-2.795-5.938-24.452-.524-20.435,5.065-22.182,8.384-21.309,11.877s5.589,5.24,24.452.524C65.8,55.111,69.64,51.094,68.766,47.776ZM66.5,49.348a10.015,10.015,0,0,1-.7,1.223,8.528,8.528,0,0,1-4.017,3.144c-1.921.7-4.366,1.572-6.812,2.445s-5.24,1.572-8.034,2.271A75.087,75.087,0,0,1,38.725,60c-2.62.349-5.065.7-7.161,1.048A14.631,14.631,0,0,1,26.5,60.7a12.217,12.217,0,0,1-1.921-.7,6.836,6.836,0,0,0,1.921.524,24.139,24.139,0,0,0,5.065,0c2.1-.349,4.541-.873,7.161-1.223a44.1,44.1,0,0,0,8.034-1.747c2.795-.7,5.414-1.4,8.034-2.271l3.668-1.048c1.223-.349,2.271-.7,3.319-1.048A9.771,9.771,0,0,0,65.972,50.4l.524-1.048a1.352,1.352,0,0,0,.175-.524A1.352,1.352,0,0,1,66.5,49.348Zm8.558-28.47c-.873-3.493-2.795-5.938-24.452-.524C30.166,25.419,28.42,28.738,29.293,32.231s5.589,5.24,24.452.524C72.259,28.039,75.927,24.2,75.054,20.878Zm-2.1,1.572a10.019,10.019,0,0,1-.7,1.223,8.528,8.528,0,0,1-4.017,3.144c-1.921.7-4.367,1.572-6.812,2.445s-5.24,1.572-8.034,2.271A75.082,75.082,0,0,1,45.187,33.1c-2.62.349-5.065.7-7.161,1.048a14.631,14.631,0,0,1-5.065-.349,12.217,12.217,0,0,1-1.921-.7,6.836,6.836,0,0,0,1.921.524,24.14,24.14,0,0,0,5.065,0c2.1-.349,4.541-.873,7.161-1.223a44.1,44.1,0,0,0,8.034-1.747c2.795-.7,5.414-1.4,8.034-2.271l3.668-1.048c1.223-.349,2.271-.7,3.319-1.048A9.771,9.771,0,0,0,72.434,23.5c0-.349.349-.7.524-1.048a1.352,1.352,0,0,0,.175-.524A.765.765,0,0,0,72.958,22.45Zm49.778,23.4c1.921-2.969,2.271-6.113-16.767-17.641-17.99-11-21.658-9.781-23.4-6.812-1.921,2.969.175,7.685,16.767,17.641C115.575,49,120.99,48.824,122.736,45.854Zm-2.62-.349a2.706,2.706,0,0,1-1.4.349,9.288,9.288,0,0,1-5.065-.7c-1.921-.873-4.192-1.921-6.462-3.144s-4.89-2.62-7.336-4.017a66.856,66.856,0,0,1-6.812-4.716c-2.1-1.572-4.017-3.144-5.764-4.367a21.613,21.613,0,0,1-3.493-3.843,6.308,6.308,0,0,1-.873-1.747,5.035,5.035,0,0,0,1.048,1.747,14.215,14.215,0,0,0,3.668,3.493c1.747,1.223,3.843,2.62,5.938,4.192S98.109,35.9,100.38,37.3c2.445,1.4,4.89,2.795,7.161,4.017,1.223.7,2.271,1.223,3.319,1.747s2.1,1.048,2.969,1.572a9.49,9.49,0,0,0,4.89,1.048c.7,0,1.048-.175,1.4-.175a1.352,1.352,0,0,1,.524-.175A1.351,1.351,0,0,0,120.116,45.505Z" transform="translate(-16.91 -17.186)" fill="#15af4b"/>
</svg>
