<svg xmlns="http://www.w3.org/2000/svg" width="102.311" height="111.828" viewBox="0 0 102.311 111.828">
  <path id="Path_3" data-name="Path 3" d="M56.272,965.8c-2.438,9.424,4.55,18.681,13.649,21.206s25.975,3.52,28.413-5.905-11.356-22.21-20.455-24.735c-10.19-3.283-19.443,1.9-21.607,9.434Zm-18.26,2.859c-.371,3.809.63,10.469,6.471,10.585,5.006.1,5.27-7.039,5.355-9.805.107-3.431-2.234-8.931-5.5-9.211-4.017-.016-5.967,5.4-6.322,8.431Zm-10.748-7.094c-3.037,1.412-2.634,6.318-1.86,9.062s2.106,5.313,4.649,5.014c2.277-.268,2.138-5.358,1.562-7.874-.818-2.8-1.5-6.569-4.351-6.2Zm-12.607,19.61c-1.3,2.408-2.82,7.585-.483,8.5,2.609,1.026,4.712-1.24,6.285-3.825s3.348-7.5.521-9.8C18.148,974.726,15.851,978.985,14.656,981.177Zm18.818,1.634c-5.962.719-7.283,10.257-5.541,15.042s6.487,9.08,8.888,8.691c2.525-.41,2.742-9.094,1.785-13.7-.748-3.6-1.631-10.45-5.132-10.028Zm10.636,4.2c-1.2,2.7,3.044,7.574,6.4,9.4,2.7,1.469,9.667,5.218,11.826,1.263,2.52-4.615-3.454-9.093-7.289-10.919C52.15,985.614,45.7,983.751,44.11,987.008Zm56.6,5.311c-5,.318-6.306,9.605-8.293,17.753-2.192,8.991-4.215,15.713,2.194,17.53,7.477,2.119,11.828-5.977,14.021-14.967,1.9-8.446-.032-19.9-7.922-20.315Zm-84.347,4.754c-5.4-.476-6.894,7.626-8.256,13.036-1.175,4.666-2.833,15.746,3.5,17.53,7.384,2.081,10.577-5.836,11.752-14,.3-7.072-.5-15.366-6.992-16.564Zm54.93,1.969c-.323,2.556,2.239,3.889,4.983,4.642s7.669,1.092,9.112-1.969c1.161-2.464-4.181-3.9-6.211-4.345C76.9,996.979,71.7,996.76,71.3,999.041Zm-32.169,17.047c0,7.13,9.6,10.608,19.041,10.7s26.182-2.379,26.182-9.508c0-5.941-17.929-11.8-27.372-11.885-8.946.679-17.6,3.766-17.851,10.7Zm-11.715,7.985c-1,2.423-2.221,7.583-.521,8.43,1.9.946,3.482-1.33,4.686-3.937s2.593-7.525.558-9.731C29.768,1017.658,28.19,1022.2,27.412,1024.073Zm13.463,6.648c-1.707.364-4.757,1.639-4.017,2.972.826,1.488,2.878,1.541,4.8,1.226s4.941-1.428,4.574-3.491c-1.468-1.63-3.373-1.109-5.355-.706Zm19.264,14.039c-2.217,8.126.1,19.646,8.888,22.024s13.292-6.943,15.508-16.23,1.1-16.248-6.657-18.57c-8.1-1.9-16,6.924-17.74,12.776Zm-8.926-8.319c-1,1.615-2.221,5.08-.521,5.645,1.9.631,3.482-.9,4.686-2.637s2.593-5.029.558-6.5C53.882,1032.209,52.214,1034.839,51.214,1036.44Zm43.289,4.754c-2.165,3.578-4.309,10.744-2.045,11.588,2.153.8,7.76-1.786,10.711-5.348s4.333-11.618-1.078-13.407c-3.672-.694-6.005,4.534-7.587,7.168Zm-81.781-5.905c-2.263,1.055-.119,9.975,2.045,14.447,1.692,3.5,4.409,10.264,7.587,8.95,5.412-2.236,4.029-12.3,1.079-16.75C20.743,1039.075,16.764,1034.432,12.722,1035.289Zm22.24,6.388c-3.245,2.367-1.6,10.973,1.079,15.376,2.163,3.55,7.765,12.664,12.979,9.47,6.083-3.727,2.166-13.02-1.079-17.753-2.864-4.175-8.1-9.281-12.979-7.094Z" transform="translate(-7 -955.362)" fill="#15af4b"/>
</svg>
